<svg width="26" height="24" viewBox="0 0 26 24" fill="none" xmlns="http://www.w3.org/2000/svg">
<path d="M20.3371 20.6818C19.1061 20.6818 17.875 19.9432 16.7917 18.6136C16.7424 18.6136 16.7424 18.6136 16.6932 18.6136C11.572 18.6136 7.38636 14.428 7.38636 9.30682C7.38636 4.18561 11.572 0 16.6932 0C21.8144 0 26 4.18561 26 9.30682C26 11.8182 25.0151 14.1818 23.2424 15.9053C23.4394 17.4318 23.1932 18.7614 22.5038 19.6477C21.9621 20.2879 21.1742 20.6818 20.3371 20.6818ZM17.3333 16.4962C17.678 16.4962 17.9735 16.6439 18.1705 16.9394C19.0568 18.1705 19.8447 18.6136 20.3371 18.6136C20.5833 18.6136 20.7311 18.5152 20.8788 18.3674C21.2727 17.875 21.3712 16.8902 21.125 15.8068C21.0265 15.4129 21.1742 15.0189 21.4697 14.7727C23.0455 13.3939 23.9318 11.4242 23.9318 9.35606C23.9318 5.36742 20.6818 2.11742 16.6932 2.11742C12.7045 2.11742 9.45454 5.36742 9.45454 9.35606C9.45454 13.3447 12.7045 16.5947 16.6932 16.5947C16.8409 16.5947 17.0379 16.5947 17.1856 16.5947C17.2348 16.4962 17.3333 16.4962 17.3333 16.4962ZM4.72727 23.0455C4.48106 23.0455 4.18561 22.9962 3.98864 22.8977C2.80682 22.5038 1.87121 21.0758 2.16667 18.7614C0.787879 17.3826 0 15.4621 0 13.4924C0 10.3409 1.87121 7.58333 4.77652 6.45076C5.31818 6.25379 5.90909 6.5 6.10606 7.04167C6.30303 7.58333 6.05682 8.17424 5.51515 8.37121C3.44697 9.20833 2.06818 11.2273 2.06818 13.4924C2.06818 15.0682 2.75758 16.5947 3.93939 17.6288C3.98864 17.678 4.03788 17.7273 4.08712 17.7765C4.28409 18.0227 4.38258 18.3182 4.28409 18.6629C3.98864 20.1894 4.43182 20.8788 4.67803 20.9773C4.97348 21.0758 5.61364 20.6818 6.1553 19.5492C6.35227 19.1553 6.74621 18.9583 7.14015 18.9583C8.17424 19.0076 9.25758 18.8106 10.1932 18.2689C10.6856 17.9735 11.3258 18.1705 11.6212 18.6629C11.9167 19.1553 11.7197 19.7955 11.2273 20.0909C10.1439 20.6818 8.91288 21.0265 7.68182 21.0265C6.74621 22.5038 5.61364 23.0455 4.72727 23.0455Z" fill="black"/>
</svg>
