<svg width="6" height="11" viewBox="0 0 6 11" fill="none" xmlns="http://www.w3.org/2000/svg">
<path d="M6 5.7021C6 5.50151 5.9233 5.33042 5.76401 5.17703L1.16224 0.675552C1.03835 0.545759 0.873156 0.480862 0.684366 0.480862C0.300885 0.480862 1.11148e-07 0.775847 1.11148e-07 1.16523C1.11148e-07 1.35402 0.0766963 1.52511 0.20649 1.6549L4.35398 5.7021L0.20649 9.7493C0.0766963 9.88499 1.11148e-07 10.0561 1.11148e-07 10.2449C1.11148e-07 10.6284 0.300885 10.9233 0.684366 10.9233C0.873156 10.9233 1.03835 10.8584 1.16224 10.7286L5.76401 6.22717C5.9233 6.07378 5.9941 5.90269 6 5.7021Z" fill="#9CA3AF"/>
</svg>
