<svg width="22" height="20" viewBox="0 0 26 24" fill="current" xmlns="http://www.w3.org/2000/svg">
<path d="M14.3001 11.1178V10.2363C15.4159 9.94706 16.4042 9.29575 17.1101 8.38446C17.816 7.47317 18.1995 6.35342 18.2006 5.20072C18.2006 2.33252 15.8681 0 12.9999 0C10.1317 0 7.7992 2.33252 7.7992 5.20072H10.3996C10.3996 3.76662 11.5658 2.60036 12.9999 2.60036C14.434 2.60036 15.6003 3.76662 15.6003 5.20072C15.6003 6.63482 14.434 7.80108 12.9999 7.80108C12.6551 7.80108 12.3244 7.93806 12.0806 8.18189C11.8367 8.42572 11.6997 8.75643 11.6997 9.10126V11.1178L0.433684 21.1318C0.237461 21.3074 0.0991006 21.5383 0.0368722 21.7942C-0.0253562 22.05 -0.0085256 22.3187 0.0851418 22.5648C0.178809 22.8108 0.344908 23.0227 0.561505 23.1724C0.778102 23.3221 1.03501 23.4026 1.2983 23.4032H24.7015C24.965 23.4026 25.2221 23.3221 25.4388 23.1722C25.6555 23.0223 25.8216 22.8102 25.9152 22.5639C26.0087 22.3176 26.0253 22.0487 25.9628 21.7928C25.9002 21.5368 25.7615 21.3059 25.5649 21.1305L14.3001 11.1178ZM4.71778 20.8029L12.9999 13.4413L21.2821 20.8029H4.71778Z" fill="current"/>
</svg>
