<svg width="20" height="20" viewBox="0 0 22 22" fill="none" xmlns="http://www.w3.org/2000/svg">
<path d="M18 21V19.5M4 21V19.5" stroke="current" stroke-width="2" stroke-linecap="round"/>
<path d="M11 19V1" stroke="current" stroke-width="2" stroke-linecap="round"/>
<path d="M14 7.99998V12" stroke="current" stroke-width="2" stroke-linecap="round"/>
<path d="M8 7.99998V12" stroke="current" stroke-width="2" stroke-linecap="round"/>
<path d="M1 9C1 5.22876 1 3.34315 2.17157 2.17157C3.34315 1 5.22876 1 9 1H13C16.7712 1 18.6569 1 19.8284 2.17157C21 3.34315 21 5.22876 21 9V11C21 14.7712 21 16.6569 19.8284 17.8284C18.6569 19 16.7712 19 13 19H9C5.22876 19 3.34315 19 2.17157 17.8284C1 16.6569 1 14.7712 1 11V9Z" stroke="current" stroke-width="2"/>
</svg>
