<svg width="current" height="current" viewBox="0 0 25 15" fill="none" xmlns="http://www.w3.org/2000/svg">
<path d="M12.7554 10.8969C13.1076 10.8969 13.3737 10.7838 13.5687 10.5512C13.7693 10.312 13.8711 9.99453 13.8711 9.60754V8.65338C13.8711 8.27392 13.7682 7.96022 13.5653 7.72106C13.3676 7.48809 13.1014 7.37488 12.7515 7.37488C12.4024 7.37488 12.1406 7.48705 11.9508 7.71774C11.7549 7.95606 11.6555 8.27085 11.6555 8.65343V9.60759C11.6555 9.99483 11.7561 10.3125 11.9545 10.5518C12.1467 10.784 12.4087 10.8969 12.7554 10.8969Z" fill="#16A34A"/>
<path d="M21.6218 6.95799C21.8011 6.43758 21.8918 5.89706 21.8918 5.34727C21.8918 2.39877 19.2766 0 16.0621 0C14.1123 0 12.2765 0.911865 11.2022 2.39674C10.3762 1.85577 9.37739 1.56045 8.35851 1.56045C5.65998 1.56045 3.46456 3.57416 3.46456 6.0494C3.46456 6.34284 3.49561 6.63499 3.557 6.92115C1.51023 7.30408 0 8.97849 0 10.9189C0 13.1692 1.99596 15 4.44931 15H20.5507C23.0041 15 25 13.1692 25 10.9189C25 9.02667 23.5967 7.40343 21.6218 6.95799ZM9.48592 8.31093L9.44084 8.43539H8.09157V8.31158C8.09157 7.99848 8.01198 7.75877 7.85496 7.59905C7.70156 7.4431 7.45081 7.364 7.10962 7.364C6.8093 7.364 6.57751 7.47281 6.40094 7.69667C6.21698 7.92973 6.12374 8.23446 6.12374 8.60249V9.65119C6.12374 10.0228 6.22163 10.3292 6.41471 10.5619C6.60175 10.7873 6.84834 10.8969 7.16858 10.8969C7.48586 10.8969 7.71992 10.8216 7.86419 10.6732C8.01241 10.5206 8.08757 10.2831 8.08757 9.96736V9.84355H9.43284L9.47804 9.96791L9.47836 9.98693C9.48943 10.5859 9.28517 11.0697 8.87125 11.4249C8.46046 11.7774 7.88758 11.9562 7.16853 11.9562C6.44419 11.9562 5.84664 11.7384 5.39233 11.309C4.93904 10.8807 4.70924 10.3237 4.70924 9.65357V8.61106C4.70924 7.9442 4.93326 7.38768 5.37516 6.95705C5.81931 6.52425 6.40283 6.3048 7.10957 6.3048C7.84875 6.3048 8.43772 6.48374 8.86007 6.83671C9.28663 7.19324 9.49726 7.6829 9.48619 8.29206L9.48592 8.31093ZM15.2894 9.603C15.2894 10.2777 15.0523 10.8444 14.5847 11.2872C14.116 11.7311 13.5006 11.9561 12.7553 11.9561C12.0151 11.9561 11.4041 11.7309 10.9393 11.2868C10.476 10.8441 10.241 10.2775 10.241 9.603V8.65786C10.241 7.98585 10.4752 7.42002 10.9371 6.97612C11.4007 6.53064 12.0111 6.3047 12.7514 6.3047C13.4965 6.3047 14.1127 6.53039 14.5828 6.97548C15.0517 7.41952 15.2894 7.98555 15.2894 8.65786V9.603ZM20.3374 11.8803H16.1582V11.0187L18.0469 9.16138C18.3033 8.89147 18.4893 8.65954 18.5968 8.47511C18.6985 8.30053 18.75 8.13868 18.75 7.99412C18.75 7.80131 18.6967 7.64991 18.5872 7.53115C18.4834 7.41868 18.3364 7.364 18.1377 7.364C17.9153 7.364 17.7529 7.42898 17.6411 7.56265C17.5227 7.70444 17.4626 7.90061 17.4626 8.14562V8.26943H16.1135L16.0683 8.14566L16.0678 8.12709C16.0538 7.62069 16.2382 7.18561 16.616 6.83403C16.9932 6.48279 17.5052 6.3047 18.1377 6.3047C18.7596 6.3047 19.2579 6.45759 19.6189 6.75905C19.9835 7.06358 20.1684 7.47306 20.1684 7.97604C20.1684 8.31633 20.0651 8.63458 19.8614 8.92193C19.6679 9.19486 19.3463 9.55536 18.9055 9.99356L18.0769 10.8211H20.3374V11.8803H20.3374Z" fill="#16A34A"/>
</svg>
