<svg width="18" height="18" viewBox="0 0 25 25" fill="current" xmlns="http://www.w3.org/2000/svg">
<path d="M8.83333 23.896V14.8516C8.83333 14.1671 8.83333 13.8248 8.96654 13.5634C9.08373 13.3335 9.27071 13.1465 9.50068 13.0293C9.76212 12.896 10.1043 12.896 10.7889 12.896H14.2111C14.8957 12.896 15.2379 12.896 15.4993 13.0293C15.7294 13.1465 15.9162 13.3335 16.0334 13.5634C16.1667 13.8248 16.1667 14.1671 16.1667 14.8516V23.896M11.2994 1.60763L3.00992 8.05501C2.4558 8.48599 2.17875 8.70148 1.97915 8.97135C1.80234 9.21041 1.67062 9.47971 1.59048 9.76604C1.5 10.0893 1.5 10.4403 1.5 11.1423V19.9849C1.5 21.3539 1.5 22.0385 1.76643 22.5614C2.00078 23.0213 2.37473 23.3953 2.83469 23.6296C3.35758 23.896 4.04209 23.896 5.41111 23.896H19.5889C20.9579 23.896 21.6425 23.896 22.1653 23.6296C22.6253 23.3953 22.9993 23.0213 23.2336 22.5614C23.5 22.0385 23.5 21.3539 23.5 19.9849V11.1423C23.5 10.4403 23.5 10.0893 23.4096 9.76604C23.3294 9.47971 23.1976 9.21041 23.0209 8.97135C22.8213 8.70148 22.5442 8.48599 21.9901 8.05501L13.7006 1.60763C13.2712 1.27366 13.0565 1.10667 12.8194 1.04248C12.6102 0.985841 12.3898 0.985841 12.1806 1.04248C11.9435 1.10667 11.7288 1.27366 11.2994 1.60763Z" stroke="current" stroke-width="2" stroke-linecap="round" stroke-linejoin="round"/>
</svg>
