<svg width="110" height="24" viewBox="0 0 110 24" fill="none" xmlns="http://www.w3.org/2000/svg">
<circle cx="8" cy="10.5143" r="8" fill="#6366F1"/>
<circle cx="13.4856" cy="16" r="8" fill="#818CF8"/>
<circle cx="16" cy="8" r="8" fill="#A5B4FC"/>
<path d="M40.0373 12.472H42.3413C43.4933 12.472 44.3653 12.24 44.9573 11.776C45.5653 11.296 45.8693 10.576 45.8693 9.616C45.8693 8.656 45.5653 7.992 44.9573 7.624C44.3653 7.24 43.4933 7.048 42.3413 7.048H40.0373V12.472ZM46.1573 22L42.5093 15.28H40.0373V22H36.4853V4.24H42.6773C43.6053 4.24 44.4773 4.328 45.2933 4.504C46.1093 4.68 46.8133 4.976 47.4053 5.392C48.0133 5.808 48.4853 6.36 48.8213 7.048C49.1733 7.736 49.3493 8.592 49.3493 9.616C49.3493 10.96 49.0373 12.048 48.4133 12.88C47.8053 13.712 46.9893 14.328 45.9653 14.728L50.1173 22H46.1573ZM57.9806 22.336C57.0366 22.336 56.1566 22.176 55.3406 21.856C54.5406 21.536 53.8366 21.08 53.2286 20.488C52.6366 19.88 52.1646 19.144 51.8126 18.28C51.4766 17.4 51.3086 16.408 51.3086 15.304C51.3086 14.216 51.4846 13.24 51.8366 12.376C52.1886 11.496 52.6526 10.752 53.2286 10.144C53.8206 9.52 54.4926 9.048 55.2446 8.728C55.9966 8.392 56.7726 8.224 57.5726 8.224C58.5006 8.224 59.3086 8.384 59.9966 8.704C60.7006 9.024 61.2846 9.472 61.7486 10.048C62.2286 10.624 62.5886 11.304 62.8286 12.088C63.0686 12.872 63.1886 13.728 63.1886 14.656C63.1886 14.976 63.1726 15.288 63.1406 15.592C63.1086 15.88 63.0686 16.104 63.0206 16.264H54.7406C54.8846 17.368 55.2846 18.208 55.9406 18.784C56.6126 19.344 57.4526 19.624 58.4606 19.624C59.0206 19.624 59.5406 19.544 60.0206 19.384C60.5166 19.224 61.0046 18.992 61.4846 18.688L62.6846 20.848C62.0126 21.312 61.2686 21.68 60.4526 21.952C59.6526 22.208 58.8286 22.336 57.9806 22.336ZM60.1646 13.936C60.1646 13.024 59.9566 12.304 59.5406 11.776C59.1246 11.232 58.4846 10.96 57.6206 10.96C56.9166 10.96 56.2846 11.216 55.7246 11.728C55.1646 12.224 54.8206 12.96 54.6926 13.936H60.1646ZM71.3979 22.336C70.4699 22.336 69.6059 22.176 68.8059 21.856C68.0059 21.536 67.3099 21.08 66.7179 20.488C66.1419 19.88 65.6859 19.144 65.3499 18.28C65.0139 17.4 64.8459 16.408 64.8459 15.304C64.8459 14.184 65.0299 13.184 65.3979 12.304C65.7819 11.424 66.2859 10.688 66.9099 10.096C67.5339 9.488 68.2619 9.024 69.0939 8.704C69.9259 8.384 70.7979 8.224 71.7099 8.224C72.5419 8.224 73.2779 8.368 73.9179 8.656C74.5579 8.944 75.1259 9.296 75.6219 9.712L73.9419 11.992C73.6059 11.704 73.2699 11.488 72.9339 11.344C72.6139 11.184 72.2619 11.104 71.8779 11.104C70.8539 11.104 70.0219 11.488 69.3819 12.256C68.7579 13.008 68.4459 14.024 68.4459 15.304C68.4459 16.568 68.7579 17.576 69.3819 18.328C70.0059 19.08 70.8059 19.456 71.7819 19.456C72.2619 19.456 72.7259 19.36 73.1739 19.168C73.6219 18.96 74.0299 18.696 74.3979 18.376L75.7899 20.704C75.1499 21.264 74.4459 21.68 73.6779 21.952C72.9099 22.208 72.1499 22.336 71.3979 22.336ZM77.9342 22V2.848H81.4382V22H77.9342ZM90.7125 22.336C89.8645 22.336 89.0485 22.176 88.2645 21.856C87.4965 21.536 86.8165 21.08 86.2245 20.488C85.6325 19.88 85.1525 19.144 84.7845 18.28C84.4325 17.4 84.2565 16.408 84.2565 15.304C84.2565 14.184 84.4325 13.184 84.7845 12.304C85.1525 11.424 85.6325 10.688 86.2245 10.096C86.8165 9.488 87.4965 9.024 88.2645 8.704C89.0485 8.384 89.8645 8.224 90.7125 8.224C91.5445 8.224 92.3525 8.384 93.1365 8.704C93.9205 9.024 94.6085 9.488 95.2005 10.096C95.7925 10.688 96.2645 11.424 96.6165 12.304C96.9845 13.184 97.1685 14.184 97.1685 15.304C97.1685 16.408 96.9845 17.4 96.6165 18.28C96.2645 19.144 95.7925 19.88 95.2005 20.488C94.6085 21.08 93.9205 21.536 93.1365 21.856C92.3525 22.176 91.5445 22.336 90.7125 22.336ZM90.7125 19.456C91.6245 19.456 92.3285 19.08 92.8245 18.328C93.3205 17.576 93.5685 16.568 93.5685 15.304C93.5685 14.024 93.3205 13.008 92.8245 12.256C92.3285 11.488 91.6245 11.104 90.7125 11.104C89.8005 11.104 89.0965 11.488 88.6005 12.256C88.1045 13.008 87.8565 14.024 87.8565 15.304C87.8565 16.568 88.1045 17.576 88.6005 18.328C89.0965 19.08 89.8005 19.456 90.7125 19.456ZM103.552 22.336C102.64 22.336 101.728 22.16 100.816 21.808C99.9039 21.456 99.1119 21 98.4399 20.44L100.048 18.232C100.656 18.696 101.248 19.056 101.824 19.312C102.416 19.568 103.024 19.696 103.648 19.696C104.32 19.696 104.808 19.568 105.112 19.312C105.432 19.04 105.592 18.696 105.592 18.28C105.592 18.024 105.512 17.808 105.352 17.632C105.192 17.44 104.976 17.264 104.704 17.104C104.448 16.944 104.152 16.8 103.816 16.672C103.48 16.544 103.136 16.408 102.784 16.264C102.352 16.104 101.92 15.92 101.488 15.712C101.056 15.488 100.664 15.224 100.312 14.92C99.9599 14.6 99.6719 14.232 99.4479 13.816C99.2239 13.4 99.1119 12.912 99.1119 12.352C99.1119 11.744 99.2319 11.192 99.4719 10.696C99.7119 10.184 100.048 9.744 100.48 9.376C100.912 9.008 101.432 8.728 102.04 8.536C102.664 8.328 103.352 8.224 104.104 8.224C105.096 8.224 105.968 8.4 106.72 8.752C107.472 9.088 108.128 9.464 108.688 9.88L107.104 12.016C106.624 11.68 106.144 11.408 105.664 11.2C105.2 10.976 104.712 10.864 104.2 10.864C103.592 10.864 103.144 10.984 102.856 11.224C102.568 11.464 102.424 11.776 102.424 12.16C102.424 12.4 102.496 12.608 102.64 12.784C102.8 12.96 103.008 13.12 103.264 13.264C103.52 13.408 103.808 13.544 104.128 13.672C104.464 13.784 104.808 13.904 105.16 14.032C105.608 14.208 106.048 14.4 106.48 14.608C106.928 14.816 107.328 15.072 107.68 15.376C108.048 15.68 108.344 16.056 108.568 16.504C108.792 16.936 108.904 17.464 108.904 18.088C108.904 18.68 108.784 19.232 108.544 19.744C108.32 20.256 107.984 20.704 107.536 21.088C107.088 21.472 106.528 21.776 105.856 22C105.2 22.224 104.432 22.336 103.552 22.336Z" fill="#4F46E5"/>
</svg>
