<svg width="26" height="28" viewBox="0 0 26 28" fill="none" xmlns="http://www.w3.org/2000/svg">
<path d="M8.82378 20.4996H4.0943C2.34152 20.4996 1.46514 20.4996 1.28075 20.3635C1.07359 20.2106 1.02297 20.1203 1.00054 19.8639C0.980577 19.6356 1.51771 18.7566 2.592 16.9989C3.70118 15.1839 4.64301 12.5413 4.64301 8.79984C4.64301 6.7312 5.52347 4.74728 7.0907 3.28452C8.65793 1.82177 10.7836 1 13 1C15.2164 1 17.342 1.82177 18.9092 3.28452C20.4765 4.74728 21.3569 6.7312 21.3569 8.79984C21.3569 12.5413 22.2988 15.1839 23.408 16.9989C24.4822 18.7566 25.0194 19.6356 24.9995 19.8639C24.977 20.1203 24.9263 20.2106 24.7192 20.3635C24.5348 20.4996 23.6585 20.4996 21.9057 20.4996H17.1785M8.82378 20.4996L8.82149 21.8924C8.82149 24.2002 10.6923 26.0709 13 26.0709C15.3077 26.0709 17.1785 24.2002 17.1785 21.8924V20.4996M8.82378 20.4996H17.1785" stroke="black" stroke-width="2" stroke-linecap="round" stroke-linejoin="round"/>
</svg>
