<svg width="20" height="21" viewBox="0 0 20 21" fill="none" xmlns="http://www.w3.org/2000/svg">
<path d="M12.0317 0C12.1869 4.88987e-06 12.338 0.0492589 12.4634 0.140669C12.5888 0.232078 12.682 0.360927 12.7295 0.508657L13.5357 3.01383C13.8743 3.17947 14.1983 3.36564 14.5076 3.57526L17.0816 3.02116C17.2334 2.98876 17.3915 3.00536 17.5333 3.06859C17.675 3.13181 17.793 3.23839 17.8703 3.37297L19.902 6.88959C19.9795 7.02409 20.0124 7.17976 19.9958 7.33414C19.9792 7.48853 19.914 7.63365 19.8096 7.74859L18.0432 9.6982C18.069 10.072 18.069 10.4472 18.0432 10.8211L19.8096 12.7736C19.914 12.8885 19.9792 13.0337 19.9958 13.188C20.0124 13.3424 19.9795 13.4981 19.902 13.6326L17.8703 17.1507C17.7928 17.285 17.6747 17.3913 17.533 17.4542C17.3913 17.5172 17.2332 17.5336 17.0816 17.501L14.5076 16.9469C14.1997 17.1551 13.8743 17.3427 13.5371 17.5084L12.7295 20.0135C12.682 20.1613 12.5888 20.2901 12.4634 20.3815C12.338 20.4729 12.1869 20.5222 12.0317 20.5222H7.9683C7.81313 20.5222 7.66196 20.4729 7.53657 20.3815C7.41118 20.2901 7.31803 20.1613 7.27055 20.0135L6.46579 17.5098C6.12808 17.3447 5.80235 17.1561 5.49098 16.9455L2.91838 17.501C2.76661 17.5334 2.60847 17.5168 2.46675 17.4536C2.32502 17.3904 2.20702 17.2838 2.12974 17.1492L0.0980457 13.6326C0.0204638 13.4981 -0.0123975 13.3424 0.00420008 13.188C0.0207977 13.0337 0.0859965 12.8885 0.190395 12.7736L1.95677 10.8211C1.93118 10.4482 1.93118 10.074 1.95677 9.70113L0.190395 7.74859C0.0859965 7.63365 0.0207977 7.48853 0.00420008 7.33414C-0.0123975 7.17976 0.0204638 7.02409 0.0980457 6.88959L2.12974 3.3715C2.20723 3.23719 2.32533 3.13091 2.46704 3.06796C2.60874 3.00501 2.76677 2.98862 2.91838 3.02116L5.49098 3.57672C5.80175 3.3671 6.12717 3.17801 6.46579 3.01236L7.27202 0.508657C7.31934 0.361402 7.41205 0.232895 7.53685 0.14153C7.66166 0.0501642 7.81217 0.000623973 7.96684 0H12.0302H12.0317ZM11.4952 1.46587H8.50481L7.6722 4.05606L7.11077 4.33018C6.83477 4.46524 6.56834 4.61903 6.31334 4.79046L5.79442 5.14227L3.1324 4.56765L1.63721 7.15931L3.46222 9.17928L3.41824 9.80081C3.39718 10.1073 3.39718 10.4149 3.41824 10.7214L3.46222 11.3429L1.63428 13.3629L3.13093 15.9545L5.79295 15.3814L6.31187 15.7317C6.56687 15.9032 6.83331 16.0569 7.1093 16.192L7.67073 16.4661L8.50481 19.0563H11.4981L12.3337 16.4647L12.8936 16.192C13.1693 16.0573 13.4353 15.9035 13.6896 15.7317L14.207 15.3814L16.8705 15.9545L18.3657 13.3629L16.5392 11.3429L16.5832 10.7214C16.6044 10.4144 16.6044 10.1063 16.5832 9.79934L16.5392 9.17781L18.3672 7.15931L16.8705 4.56765L14.207 5.13934L13.6896 4.79046C13.4353 4.61868 13.1693 4.46488 12.8936 4.33018L12.3337 4.05753L11.4967 1.46587H11.4952ZM10 5.86348C11.1663 5.86348 12.2849 6.3268 13.1096 7.15151C13.9343 7.97622 14.3976 9.09477 14.3976 10.2611C14.3976 11.4274 13.9343 12.546 13.1096 13.3707C12.2849 14.1954 11.1663 14.6587 10 14.6587C8.83368 14.6587 7.71513 14.1954 6.89042 13.3707C6.06571 12.546 5.60239 11.4274 5.60239 10.2611C5.60239 9.09477 6.06571 7.97622 6.89042 7.15151C7.71513 6.3268 8.83368 5.86348 10 5.86348ZM10 7.32935C9.22245 7.32935 8.47675 7.63823 7.92695 8.18804C7.37714 8.73785 7.06826 9.48355 7.06826 10.2611C7.06826 11.0386 7.37714 11.7843 7.92695 12.3341C8.47675 12.884 9.22245 13.1928 10 13.1928C10.7775 13.1928 11.5232 12.884 12.0731 12.3341C12.6229 11.7843 12.9317 11.0386 12.9317 10.2611C12.9317 9.48355 12.6229 8.73785 12.0731 8.18804C11.5232 7.63823 10.7775 7.32935 10 7.32935Z" fill="black"/>
</svg>
