<svg width="22" height="30" viewBox="0 0 22 30" fill="none" xmlns="http://www.w3.org/2000/svg">
<path d="M16.7144 17.264C16.7144 19.0126 16.0371 20.6897 14.8316 21.9261C14.1471 22.6281 13.3241 23.1559 12.4286 23.4806M21 17.7033C21 8.30769 11 1 11 1C11 1 1 8.30769 1 17.7033C1 20.472 2.05357 23.1276 3.92893 25.0854C5.8043 27.0431 8.348 28.142 11.0001 28.142C13.6523 28.142 16.1957 27.0426 18.071 25.0849C19.9464 23.127 21 20.472 21 17.7033Z" fill="#DBEAFE"/>
<path d="M16.7144 17.264C16.7144 19.0126 16.0371 20.6897 14.8316 21.9261C14.1471 22.6281 13.3241 23.1559 12.4286 23.4806M21 17.7033C21 8.30769 11 1 11 1C11 1 1 8.30769 1 17.7033C1 20.472 2.05357 23.1276 3.92893 25.0854C5.8043 27.0431 8.348 28.142 11.0001 28.142C13.6523 28.142 16.1957 27.0426 18.071 25.0849C19.9464 23.127 21 20.472 21 17.7033Z" stroke="#2563EB" stroke-width="2" stroke-linecap="round" stroke-linejoin="round"/>
</svg>
